<svg width="530" height="530" viewBox="0 0 530 530" fill="none" xmlns="http://www.w3.org/2000/svg">
<g filter="url(#filter0_d)">
<g filter="url(#filter1_d)">
<path fill-rule="evenodd" clip-rule="evenodd" d="M177.878 186.093L175.963 188.008L176.36 187.627C176.848 187.122 177.357 186.614 177.878 186.093Z" fill="url(#paint0_linear)"/>
<mask id="mask0" mask-type="alpha" maskUnits="userSpaceOnUse" x="0" y="0" width="530" height="530">
<path d="M0.248052 264.954L264.789 0.413574L529.247 264.872L264.706 529.412L0.248052 264.954Z" fill="white"/>
</mask>
<g mask="url(#mask0)">
<path fill-rule="evenodd" clip-rule="evenodd" d="M349.644 330.733L336.135 292.541L339.155 289.522C341.349 287.328 342.581 284.353 342.581 281.25C342.581 278.147 341.349 275.172 339.155 272.978C336.164 269.988 331.971 268.995 328.136 269.917L318.359 242.28L344.271 218.229C347.427 215.073 351.749 206.268 354.653 197.21C355.035 196.016 355.391 194.813 355.72 193.603L355.753 193.496C356.053 192.388 356.329 191.274 356.58 190.154L356.654 189.815C356.871 188.83 357.058 187.84 357.217 186.845L357.316 186.291C357.44 185.44 357.541 184.587 357.618 183.731C357.639 183.487 357.676 183.234 357.692 182.994C357.735 182.284 357.752 181.572 357.742 180.86C357.746 180.583 357.759 180.289 357.75 180.025C357.719 179.432 357.655 178.841 357.56 178.254C357.523 177.986 357.511 177.692 357.461 177.444C357.349 176.894 357.171 176.426 356.998 175.955C356.923 175.748 356.878 175.504 356.787 175.314C356.52 174.721 356.152 174.179 355.699 173.713C355.233 173.26 354.691 172.892 354.098 172.625C353.908 172.534 353.664 172.489 353.457 172.414C352.986 172.241 352.518 172.063 351.968 171.951C351.72 171.902 351.426 171.889 351.158 171.852C350.571 171.757 349.98 171.693 349.387 171.662C349.123 171.653 348.829 171.666 348.552 171.67C347.84 171.66 347.128 171.677 346.418 171.72C346.178 171.736 345.925 171.773 345.681 171.794C344.825 171.871 343.972 171.972 343.121 172.096L342.567 172.195C341.571 172.355 340.579 172.541 339.593 172.754L339.258 172.832C338.158 173.08 337.041 173.353 335.916 173.659L335.809 173.692C334.599 174.021 333.396 174.377 332.202 174.759C323.144 177.663 314.339 181.985 311.183 185.141L287.132 211.053L259.495 201.276C259.975 199.331 259.945 197.295 259.409 195.365C258.873 193.435 257.848 191.676 256.434 190.257C254.24 188.063 251.265 186.831 248.162 186.831C245.059 186.831 242.084 188.063 239.89 190.257L236.871 193.277L198.679 179.768C188.198 177.229 182.821 181.282 176.361 187.627C175.699 188.305 175.091 188.963 174.508 189.612C174.243 189.827 173.962 190.009 173.713 190.257L165.441 198.529C163.248 200.723 162.015 203.699 162.015 206.801C162.015 209.904 163.248 212.88 165.441 215.073C167.635 217.267 170.611 218.5 173.713 218.5C176.816 218.5 179.792 217.267 181.986 215.073L185.667 211.392L252.228 248.654L211.054 293.013L157.835 280.65C149.282 279.674 144.195 285.953 137.494 292.653C137.494 292.653 130.74 301.004 141.122 305.57L187.048 325.82L186.122 326.746C183.928 328.94 182.695 331.916 182.695 335.018C182.695 338.121 183.928 341.097 186.122 343.29C188.315 345.484 191.291 346.717 194.394 346.717C197.496 346.717 200.472 345.484 202.666 343.29L203.592 342.364L223.842 388.29C228.408 398.672 236.759 391.918 236.759 391.918C243.459 385.217 249.738 380.13 248.762 371.577L236.399 318.358L280.758 277.184L318.02 343.745L314.339 347.426C312.145 349.62 310.912 352.596 310.912 355.699C310.912 358.801 312.145 361.777 314.339 363.971C316.532 366.164 319.508 367.397 322.611 367.397C325.713 367.397 328.689 366.164 330.883 363.971L338.357 356.497L339.155 355.699C339.403 355.45 339.585 355.169 339.8 354.904C340.449 354.321 341.107 353.713 341.785 353.051L341.405 353.449L343.32 351.534C342.799 352.055 342.29 352.563 341.785 353.051C348.13 346.591 352.183 341.214 349.644 330.733Z" fill="url(#paint1_linear)"/>
<path fill-rule="evenodd" clip-rule="evenodd" d="M341.405 353.449L330.883 363.971C328.689 366.165 325.713 367.397 322.611 367.397C319.508 367.397 316.532 366.165 314.338 363.971C312.145 361.777 310.912 358.801 310.912 355.699C310.912 352.596 312.145 349.621 314.338 347.427L318.02 343.746L280.758 277.185L236.399 318.359L248.762 371.577C249.738 380.13 243.459 385.218 236.759 391.918C236.759 391.918 228.408 398.672 223.842 388.291L203.592 342.364L202.666 343.291C200.472 345.485 197.496 346.717 194.394 346.717C191.291 346.717 188.315 345.485 186.121 343.291C183.928 341.097 182.695 338.121 182.695 335.019C182.695 331.916 183.928 328.94 186.121 326.747L187.048 325.82L141.121 305.57C130.74 301.004 137.494 292.653 137.494 292.653C144.194 285.953 149.282 279.674 157.835 280.65L211.053 293.013L252.228 248.654L185.666 211.393L181.985 215.074C179.792 217.268 176.816 218.5 173.713 218.5C170.611 218.5 167.635 217.268 165.441 215.074C163.247 212.88 162.015 209.904 162.015 206.802C162.015 203.699 163.247 200.723 165.441 198.53L172.915 191.056L173.713 190.258L177.878 186.093C177.357 186.614 176.848 187.122 176.36 187.627C182.821 181.282 188.198 177.229 198.678 179.769L236.871 193.277L239.89 190.258C242.084 188.064 245.059 186.831 248.162 186.831C251.265 186.831 254.24 188.064 256.434 190.258C259.424 193.248 260.421 197.446 259.495 201.276L287.132 211.053L311.183 185.141C314.338 181.985 323.144 177.663 332.202 174.76C333.406 174.375 334.605 174.019 335.809 173.693L335.916 173.66C337.041 173.354 338.158 173.081 339.258 172.832L339.593 172.754C340.606 172.535 341.591 172.353 342.567 172.195L343.121 172.096C343.972 171.972 344.825 171.871 345.681 171.794C345.925 171.774 346.178 171.736 346.418 171.72C347.162 171.67 347.861 171.666 348.552 171.67C348.829 171.666 349.122 171.654 349.387 171.662C350.016 171.687 350.587 171.769 351.157 171.852C351.426 171.889 351.72 171.902 351.968 171.951C352.518 172.063 352.986 172.241 353.457 172.415C353.664 172.489 353.908 172.535 354.098 172.626C354.691 172.892 355.233 173.26 355.699 173.713C356.137 174.152 356.497 174.694 356.787 175.314C356.878 175.504 356.923 175.748 356.997 175.955C357.171 176.427 357.349 176.894 357.461 177.444C357.51 177.692 357.523 177.986 357.56 178.255C357.643 178.825 357.725 179.396 357.75 180.025C357.759 180.29 357.746 180.583 357.742 180.86C357.746 181.551 357.742 182.25 357.692 182.995C357.676 183.235 357.639 183.487 357.618 183.731C357.539 184.562 357.448 185.406 357.316 186.291L357.217 186.845C357.06 187.821 356.878 188.806 356.654 189.815L356.58 190.154C356.332 191.254 356.059 192.371 355.753 193.496L355.719 193.604C355.393 194.807 355.037 196.007 354.652 197.21C351.749 206.268 347.427 215.074 344.271 218.229L318.359 242.281L328.136 269.917C330.081 269.438 332.117 269.468 334.047 270.004C335.976 270.54 337.736 271.564 339.155 272.978C341.349 275.172 342.581 278.148 342.581 281.25C342.581 284.353 341.349 287.328 339.155 289.522L336.135 292.542L349.644 330.734C352.183 341.214 348.13 346.591 341.785 353.052C342.29 352.564 342.798 352.055 343.32 351.534L341.405 353.449ZM397.059 132.353C323.963 59.2569 205.449 59.2569 132.353 132.353C59.2569 205.449 59.2569 323.963 132.353 397.059C205.449 470.155 323.963 470.155 397.059 397.059C470.155 323.963 470.155 205.449 397.059 132.353Z" fill="url(#paint2_linear)"/>
</g>
<path fill-rule="evenodd" clip-rule="evenodd" d="M339.8 354.905C339.585 355.169 339.403 355.451 339.155 355.699L341.405 353.449L341.785 353.052C341.107 353.714 340.449 354.322 339.8 354.905Z" fill="url(#paint3_linear)"/>
<path fill-rule="evenodd" clip-rule="evenodd" d="M176.36 187.627L175.963 188.007L173.713 190.257C173.961 190.009 174.243 189.827 174.507 189.612C175.111 188.938 175.729 188.276 176.36 187.627Z" fill="url(#paint4_linear)"/>
</g>
<path fill-rule="evenodd" clip-rule="evenodd" d="M341.405 353.449L330.883 363.971C328.689 366.165 325.713 367.397 322.611 367.397C319.508 367.397 316.532 366.165 314.338 363.971C312.145 361.777 310.912 358.801 310.912 355.699C310.912 352.596 312.145 349.621 314.338 347.427L318.02 343.746L280.758 277.185L236.399 318.359L248.762 371.577C249.738 380.13 243.459 385.218 236.759 391.918C236.759 391.918 228.408 398.672 223.842 388.291L203.592 342.364L202.666 343.291C200.472 345.485 197.496 346.717 194.394 346.717C191.291 346.717 188.315 345.485 186.121 343.291C183.928 341.097 182.695 338.121 182.695 335.019C182.695 331.916 183.928 328.94 186.121 326.747L187.048 325.82L141.121 305.57C130.74 301.004 137.494 292.653 137.494 292.653C144.194 285.953 149.282 279.674 157.835 280.65L211.053 293.013L252.228 248.654L185.666 211.393L181.985 215.074C179.792 217.268 176.816 218.5 173.713 218.5C170.611 218.5 167.635 217.268 165.441 215.074C163.247 212.88 162.015 209.904 162.015 206.802C162.015 203.699 163.247 200.723 165.441 198.53L172.915 191.056L173.713 190.258L177.878 186.093C177.357 186.614 176.848 187.122 176.36 187.627C182.821 181.282 188.198 177.229 198.678 179.769L236.871 193.277L239.89 190.258C242.084 188.064 245.059 186.831 248.162 186.831C251.265 186.831 254.24 188.064 256.434 190.258C259.424 193.248 260.421 197.446 259.495 201.276L287.132 211.053L311.183 185.141C314.338 181.985 323.144 177.663 332.202 174.76C333.406 174.375 334.605 174.019 335.809 173.693L335.916 173.66C337.041 173.354 338.158 173.081 339.258 172.832L339.593 172.754C340.606 172.535 341.591 172.353 342.567 172.195L343.121 172.096C343.972 171.972 344.825 171.871 345.681 171.794C345.925 171.774 346.178 171.736 346.418 171.72C347.162 171.67 347.861 171.666 348.552 171.67C348.829 171.666 349.122 171.654 349.387 171.662C350.016 171.687 350.587 171.769 351.157 171.852C351.426 171.889 351.72 171.902 351.968 171.951C352.518 172.063 352.986 172.241 353.457 172.415C353.664 172.489 353.908 172.535 354.098 172.626C354.691 172.892 355.233 173.26 355.699 173.713C356.137 174.152 356.497 174.694 356.787 175.314C356.878 175.504 356.923 175.748 356.997 175.955C357.171 176.427 357.349 176.894 357.461 177.444C357.51 177.692 357.523 177.986 357.56 178.255C357.643 178.825 357.725 179.396 357.75 180.025C357.759 180.29 357.746 180.583 357.742 180.86C357.746 181.551 357.742 182.25 357.692 182.995C357.676 183.235 357.639 183.487 357.618 183.731C357.539 184.562 357.448 185.406 357.316 186.291L357.217 186.845C357.06 187.821 356.878 188.806 356.654 189.815L356.58 190.154C356.332 191.254 356.059 192.371 355.753 193.496L355.719 193.604C355.393 194.807 355.037 196.007 354.652 197.21C351.749 206.268 347.427 215.074 344.271 218.229L318.359 242.281L328.136 269.917C330.081 269.438 332.117 269.468 334.047 270.004C335.976 270.54 337.736 271.564 339.155 272.978C341.349 275.172 342.581 278.148 342.581 281.25C342.581 284.353 341.349 287.328 339.155 289.522L336.135 292.542L349.644 330.734C352.183 341.214 348.13 346.591 341.785 353.052C342.29 352.564 342.798 352.055 343.32 351.534L341.405 353.449ZM397.059 132.353C323.963 59.2569 205.449 59.2569 132.353 132.353C59.2569 205.449 59.2569 323.963 132.353 397.059C205.449 470.155 323.963 470.155 397.059 397.059C470.155 323.963 470.155 205.449 397.059 132.353Z" fill="url(#paint5_linear)"/>
<mask id="mask1" mask-type="alpha" maskUnits="userSpaceOnUse" x="0" y="0" width="530" height="530">
<path d="M0.248052 264.954L264.789 0.413574L529.247 264.872L264.706 529.412L0.248052 264.954Z" fill="white"/>
</mask>
<g mask="url(#mask1)">
</g>
</g>
<path d="M199.768 393C200.063 393.004 200.356 392.949 200.629 392.837C200.902 392.726 201.15 392.561 201.358 392.352C201.566 392.143 201.73 391.895 201.84 391.621C201.951 391.348 202.005 391.055 202 390.76C201.991 390.177 201.751 389.621 201.332 389.215C200.914 388.809 200.351 388.585 199.768 388.593C166.956 388.593 140.407 362.044 140.407 329.232C140.407 328.647 140.175 328.087 139.762 327.674C139.348 327.26 138.788 327.028 138.203 327.028C137.619 327.028 137.059 327.26 136.645 327.674C136.232 328.087 136 328.647 136 329.232C136 364.423 164.577 393 199.768 393ZM199.72 376.5C200.021 376.504 200.32 376.447 200.599 376.333C200.877 376.22 201.131 376.051 201.343 375.838C201.556 375.624 201.723 375.371 201.836 375.091C201.949 374.812 202.005 374.513 202 374.212C201.99 373.616 201.745 373.048 201.317 372.633C200.89 372.218 200.316 371.989 199.72 371.996C176.103 371.996 157.004 352.896 157.004 329.28C157.004 328.683 156.766 328.11 156.344 327.688C155.922 327.266 155.349 327.028 154.752 327.028C154.155 327.028 153.582 327.266 153.159 327.688C152.737 328.11 152.5 328.683 152.5 329.28C152.5 355.33 173.67 376.5 199.72 376.5ZM199.607 359.992C199.922 359.996 200.236 359.938 200.528 359.819C200.82 359.7 201.086 359.524 201.309 359.301C201.532 359.078 201.708 358.812 201.827 358.52C201.945 358.228 202.004 357.915 202 357.599C201.989 356.974 201.732 356.379 201.283 355.944C200.835 355.509 200.232 355.27 199.607 355.279C185.281 355.279 173.721 343.719 173.721 329.393C173.721 328.767 173.472 328.166 173.03 327.724C172.587 327.281 171.986 327.032 171.36 327.032C170.734 327.032 170.134 327.281 169.691 327.724C169.249 328.166 169 328.767 169 329.393C169 346.269 182.731 359.992 199.607 359.992ZM193.75 343.5C198.286 343.5 202 339.787 202 335.25C202 330.713 198.286 327 193.75 327C189.213 327 185.5 330.713 185.5 335.25C185.5 339.787 189.213 343.5 193.75 343.5ZM193.75 340.197C190.996 340.197 188.803 338.003 188.803 335.25C188.803 332.497 190.996 330.295 193.75 330.295C196.503 330.295 198.696 332.497 198.696 335.25C198.696 338.003 196.503 340.197 193.75 340.197Z" fill="url(#paint6_radial)"/>
<defs>
<filter id="filter0_d" x="73.531" y="77.531" width="382.35" height="382.35" filterUnits="userSpaceOnUse" color-interpolation-filters="sRGB">
<feFlood flood-opacity="0" result="BackgroundImageFix"/>
<feColorMatrix in="SourceAlpha" type="matrix" values="0 0 0 0 0 0 0 0 0 0 0 0 0 0 0 0 0 0 127 0"/>
<feOffset dy="4"/>
<feGaussianBlur stdDeviation="2"/>
<feColorMatrix type="matrix" values="0 0 0 0 0 0 0 0 0 0 0 0 0 0 0 0 0 0 0.25 0"/>
<feBlend mode="normal" in2="BackgroundImageFix" result="effect1_dropShadow"/>
<feBlend mode="normal" in="SourceGraphic" in2="effect1_dropShadow" result="shape"/>
</filter>
<filter id="filter1_d" x="70.531" y="74.531" width="388.35" height="388.35" filterUnits="userSpaceOnUse" color-interpolation-filters="sRGB">
<feFlood flood-opacity="0" result="BackgroundImageFix"/>
<feColorMatrix in="SourceAlpha" type="matrix" values="0 0 0 0 0 0 0 0 0 0 0 0 0 0 0 0 0 0 127 0"/>
<feOffset dy="4"/>
<feGaussianBlur stdDeviation="3.5"/>
<feColorMatrix type="matrix" values="0 0 0 0 0 0 0 0 0 0 0 0 0 0 0 0 0 0 0.25 0"/>
<feBlend mode="normal" in2="BackgroundImageFix" result="effect1_dropShadow"/>
<feBlend mode="normal" in="SourceGraphic" in2="effect1_dropShadow" result="shape"/>
</filter>
<linearGradient id="paint0_linear" x1="177.882" y1="186.097" x2="175.967" y2="188.012" gradientUnits="userSpaceOnUse">
<stop stop-color="#3C0000"/>
<stop offset="1" stop-color="white" stop-opacity="0.96"/>
</linearGradient>
<linearGradient id="paint1_linear" x1="355.699" y1="173.713" x2="181.816" y2="347.596" gradientUnits="userSpaceOnUse">
<stop stop-color="#3C0000"/>
<stop offset="1" stop-color="white" stop-opacity="0.96"/>
</linearGradient>
<linearGradient id="paint2_linear" x1="397.059" y1="132.353" x2="132.353" y2="397.059" gradientUnits="userSpaceOnUse">
<stop stop-color="white"/>
<stop offset="0.0729167" stop-color="#FF0D0D"/>
<stop offset="1" stop-color="#170000" stop-opacity="0"/>
</linearGradient>
<linearGradient id="paint3_linear" x1="341.756" y1="353.023" x2="339.117" y2="355.662" gradientUnits="userSpaceOnUse">
<stop stop-color="white"/>
<stop offset="0.0729167" stop-color="#FF0D0D"/>
<stop offset="1" stop-color="#170000" stop-opacity="0"/>
</linearGradient>
<linearGradient id="paint4_linear" x1="176.389" y1="187.656" x2="173.75" y2="190.295" gradientUnits="userSpaceOnUse">
<stop stop-color="white"/>
<stop offset="0.0729167" stop-color="#FF0D0D"/>
<stop offset="1" stop-color="#170000" stop-opacity="0"/>
</linearGradient>
<linearGradient id="paint5_linear" x1="397.059" y1="132.353" x2="132.353" y2="397.059" gradientUnits="userSpaceOnUse">
<stop stop-color="white"/>
<stop offset="0.0729167" stop-color="#FF0D0D"/>
<stop offset="1" stop-color="#170000" stop-opacity="0"/>
</linearGradient>
<radialGradient id="paint6_radial" cx="0" cy="0" r="1" gradientUnits="userSpaceOnUse" gradientTransform="translate(169 360) rotate(-90) scale(32.9999)">
<stop stop-color="white"/>
<stop offset="1" stop-color="white" stop-opacity="0"/>
</radialGradient>
</defs>
</svg>
