<svg width="544" height="544" viewBox="0 0 544 544" fill="none" xmlns="http://www.w3.org/2000/svg">
<g filter="url(#filter0_d)">
<path fill-rule="evenodd" clip-rule="evenodd" d="M184.878 189.093L182.963 191.008L183.36 190.627C183.848 190.122 184.357 189.614 184.878 189.093Z" fill="url(#paint0_linear)"/>
<mask id="mask0" mask-type="alpha" maskUnits="userSpaceOnUse" x="7" y="3" width="530" height="530">
<path d="M7.24805 267.954L271.789 3.41357L536.247 267.871L271.706 532.412L7.24805 267.954Z" fill="white"/>
</mask>
<g mask="url(#mask0)">
<path fill-rule="evenodd" clip-rule="evenodd" d="M356.644 333.733L343.135 295.541L346.155 292.522C348.349 290.328 349.581 287.353 349.581 284.25C349.581 281.147 348.349 278.172 346.155 275.978C343.164 272.988 338.971 271.995 335.136 272.917L325.359 245.28L351.271 221.229C354.427 218.073 358.749 209.268 361.653 200.21C362.035 199.016 362.391 197.813 362.72 196.603L362.753 196.496C363.053 195.388 363.329 194.274 363.58 193.154L363.654 192.815C363.871 191.83 364.058 190.84 364.217 189.845L364.316 189.291C364.44 188.44 364.541 187.587 364.618 186.731C364.639 186.487 364.676 186.234 364.692 185.994C364.735 185.284 364.752 184.572 364.742 183.86C364.746 183.583 364.759 183.289 364.75 183.025C364.719 182.432 364.655 181.841 364.56 181.254C364.523 180.986 364.511 180.692 364.461 180.444C364.349 179.894 364.171 179.426 363.998 178.955C363.923 178.748 363.878 178.504 363.787 178.314C363.52 177.721 363.152 177.179 362.699 176.713C362.233 176.26 361.691 175.892 361.098 175.625C360.908 175.534 360.664 175.489 360.457 175.414C359.986 175.241 359.518 175.063 358.968 174.951C358.72 174.901 358.426 174.889 358.158 174.852C357.571 174.757 356.98 174.693 356.387 174.662C356.123 174.653 355.829 174.666 355.552 174.67C354.84 174.66 354.128 174.677 353.418 174.72C353.178 174.736 352.925 174.773 352.681 174.794C351.825 174.871 350.972 174.972 350.121 175.096L349.567 175.195C348.571 175.355 347.579 175.541 346.593 175.754L346.258 175.832C345.158 176.08 344.041 176.353 342.916 176.659L342.809 176.692C341.599 177.021 340.396 177.377 339.202 177.759C330.144 180.663 321.339 184.985 318.183 188.141L294.132 214.053L266.495 204.276C266.975 202.331 266.945 200.295 266.409 198.365C265.873 196.435 264.848 194.676 263.434 193.257C261.24 191.063 258.265 189.831 255.162 189.831C252.059 189.831 249.084 191.063 246.89 193.257L243.871 196.277L205.679 182.768C195.198 180.229 189.821 184.282 183.361 190.627C182.699 191.305 182.091 191.963 181.508 192.612C181.243 192.827 180.962 193.009 180.713 193.257L172.441 201.529C170.248 203.723 169.015 206.699 169.015 209.801C169.015 212.904 170.248 215.88 172.441 218.073C174.635 220.267 177.611 221.5 180.713 221.5C183.816 221.5 186.792 220.267 188.986 218.073L192.667 214.392L259.228 251.654L218.054 296.013L164.835 283.65C156.282 282.674 151.195 288.953 144.494 295.653C144.494 295.653 137.74 304.004 148.122 308.57L194.048 328.82L193.122 329.746C190.928 331.94 189.695 334.916 189.695 338.018C189.695 341.121 190.928 344.097 193.122 346.29C195.315 348.484 198.291 349.717 201.394 349.717C204.496 349.717 207.472 348.484 209.666 346.29L210.592 345.364L230.842 391.29C235.408 401.672 243.759 394.918 243.759 394.918C250.459 388.217 256.738 383.13 255.762 374.577L243.399 321.358L287.758 280.184L325.02 346.745L321.339 350.426C319.145 352.62 317.912 355.596 317.912 358.699C317.912 361.801 319.145 364.777 321.339 366.971C323.532 369.164 326.508 370.397 329.611 370.397C332.713 370.397 335.689 369.164 337.883 366.971L345.357 359.497L346.155 358.699C346.403 358.45 346.585 358.169 346.8 357.904C347.449 357.321 348.107 356.713 348.785 356.051L348.405 356.449L350.32 354.534C349.799 355.055 349.29 355.563 348.785 356.051C355.13 349.591 359.183 344.214 356.644 333.733" fill="url(#paint1_linear)"/>
<path fill-rule="evenodd" clip-rule="evenodd" d="M348.405 356.449L337.883 366.971C335.689 369.165 332.713 370.397 329.611 370.397C326.508 370.397 323.532 369.165 321.338 366.971C319.145 364.777 317.912 361.801 317.912 358.699C317.912 355.596 319.145 352.621 321.338 350.427L325.02 346.746L287.758 280.185L243.399 321.359L255.762 374.577C256.738 383.13 250.459 388.218 243.759 394.918C243.759 394.918 235.408 401.672 230.842 391.291L210.592 345.364L209.666 346.291C207.472 348.485 204.496 349.717 201.393 349.717C198.291 349.717 195.315 348.485 193.121 346.291C190.928 344.097 189.695 341.121 189.695 338.019C189.695 334.916 190.928 331.94 193.121 329.747L194.048 328.82L148.121 308.57C137.74 304.004 144.494 295.653 144.494 295.653C151.194 288.953 156.282 282.674 164.835 283.65L218.053 296.013L259.228 251.654L192.666 214.393L188.985 218.074C186.792 220.268 183.816 221.5 180.713 221.5C177.611 221.5 174.635 220.268 172.441 218.074C170.247 215.88 169.015 212.904 169.015 209.802C169.015 206.699 170.247 203.723 172.441 201.53L179.915 194.056L180.713 193.258L184.878 189.093C184.357 189.614 183.848 190.122 183.36 190.627C189.821 184.282 195.198 180.229 205.678 182.769L243.871 196.277L246.89 193.258C249.084 191.064 252.059 189.831 255.162 189.831C258.265 189.831 261.24 191.064 263.434 193.258C266.424 196.248 267.421 200.446 266.495 204.276L294.132 214.053L318.183 188.141C321.338 184.985 330.144 180.663 339.202 177.76C340.406 177.375 341.605 177.019 342.809 176.693L342.916 176.66C344.041 176.354 345.158 176.081 346.258 175.832L346.593 175.754C347.606 175.535 348.591 175.353 349.567 175.195L350.121 175.096C350.972 174.972 351.825 174.871 352.681 174.794C352.925 174.774 353.178 174.736 353.418 174.72C354.162 174.67 354.861 174.666 355.552 174.67C355.829 174.666 356.122 174.654 356.387 174.662C357.016 174.687 357.587 174.769 358.157 174.852C358.426 174.889 358.72 174.902 358.968 174.951C359.518 175.063 359.986 175.241 360.457 175.415C360.664 175.489 360.908 175.535 361.098 175.626C361.691 175.892 362.233 176.26 362.699 176.713C363.137 177.152 363.497 177.694 363.787 178.314C363.878 178.504 363.923 178.748 363.997 178.955C364.171 179.427 364.349 179.894 364.461 180.444C364.51 180.692 364.523 180.986 364.56 181.255C364.643 181.826 364.725 182.396 364.75 183.025C364.759 183.29 364.746 183.583 364.742 183.86C364.746 184.551 364.742 185.25 364.692 185.995C364.676 186.235 364.639 186.487 364.618 186.731C364.539 187.562 364.448 188.406 364.316 189.291L364.217 189.845C364.06 190.821 363.878 191.806 363.654 192.815L363.58 193.154C363.332 194.254 363.059 195.371 362.753 196.496L362.719 196.604C362.393 197.807 362.037 199.007 361.652 200.21C358.749 209.268 354.427 218.074 351.271 221.229L325.359 245.281L335.136 272.917C337.081 272.438 339.117 272.468 341.047 273.004C342.976 273.54 344.736 274.564 346.155 275.978C348.349 278.172 349.581 281.148 349.581 284.25C349.581 287.353 348.349 290.328 346.155 292.522L343.135 295.542L356.644 333.734C359.183 344.214 355.13 349.591 348.785 356.052C349.29 355.564 349.798 355.055 350.32 354.534L348.405 356.449ZM404.059 135.353C330.963 62.2569 212.449 62.2569 139.353 135.353C66.2569 208.449 66.2569 326.963 139.353 400.059C212.449 473.155 330.963 473.155 404.059 400.059C477.155 326.963 477.155 208.449 404.059 135.353Z" fill="url(#paint2_linear)"/>
</g>
<path fill-rule="evenodd" clip-rule="evenodd" d="M346.8 357.905C346.585 358.169 346.403 358.451 346.155 358.699L348.405 356.449L348.785 356.052C348.107 356.714 347.449 357.322 346.8 357.905Z" fill="url(#paint3_linear)"/>
<path fill-rule="evenodd" clip-rule="evenodd" d="M183.36 190.627L182.963 191.007L180.713 193.257C180.961 193.009 181.243 192.827 181.507 192.612C182.111 191.938 182.729 191.276 183.36 190.627" fill="url(#paint4_linear)"/>
</g>
<path fill-rule="evenodd" clip-rule="evenodd" d="M348.405 356.449L337.883 366.971C335.689 369.165 332.713 370.397 329.611 370.397C326.508 370.397 323.532 369.165 321.338 366.971C319.145 364.777 317.912 361.801 317.912 358.699C317.912 355.596 319.145 352.621 321.338 350.427L325.02 346.746L287.758 280.185L243.399 321.359L255.762 374.577C256.738 383.13 250.459 388.218 243.759 394.918C243.759 394.918 235.408 401.672 230.842 391.291L210.592 345.364L209.666 346.291C207.472 348.485 204.496 349.717 201.393 349.717C198.291 349.717 195.315 348.485 193.121 346.291C190.928 344.097 189.695 341.121 189.695 338.019C189.695 334.916 190.928 331.94 193.121 329.747L194.048 328.82L148.121 308.57C137.74 304.004 144.494 295.653 144.494 295.653C151.194 288.953 156.282 282.674 164.835 283.65L218.053 296.013L259.228 251.654L192.666 214.393L188.985 218.074C186.792 220.268 183.816 221.5 180.713 221.5C177.611 221.5 174.635 220.268 172.441 218.074C170.247 215.88 169.015 212.904 169.015 209.802C169.015 206.699 170.247 203.723 172.441 201.53L179.915 194.056L180.713 193.258L184.878 189.093C184.357 189.614 183.848 190.122 183.36 190.627C189.821 184.282 195.198 180.229 205.678 182.769L243.871 196.277L246.89 193.258C249.084 191.064 252.059 189.831 255.162 189.831C258.265 189.831 261.24 191.064 263.434 193.258C266.424 196.248 267.421 200.446 266.495 204.276L294.132 214.053L318.183 188.141C321.338 184.985 330.144 180.663 339.202 177.76C340.406 177.375 341.605 177.019 342.809 176.693L342.916 176.66C344.041 176.354 345.158 176.081 346.258 175.832L346.593 175.754C347.606 175.535 348.591 175.353 349.567 175.195L350.121 175.096C350.972 174.972 351.825 174.871 352.681 174.794C352.925 174.774 353.178 174.736 353.418 174.72C354.162 174.67 354.861 174.666 355.552 174.67C355.829 174.666 356.122 174.654 356.387 174.662C357.016 174.687 357.587 174.769 358.157 174.852C358.426 174.889 358.72 174.902 358.968 174.951C359.518 175.063 359.986 175.241 360.457 175.415C360.664 175.489 360.908 175.535 361.098 175.626C361.691 175.892 362.233 176.26 362.699 176.713C363.137 177.152 363.497 177.694 363.787 178.314C363.878 178.504 363.923 178.748 363.997 178.955C364.171 179.427 364.349 179.894 364.461 180.444C364.51 180.692 364.523 180.986 364.56 181.255C364.643 181.826 364.725 182.396 364.75 183.025C364.759 183.29 364.746 183.583 364.742 183.86C364.746 184.551 364.742 185.25 364.692 185.995C364.676 186.235 364.639 186.487 364.618 186.731C364.539 187.562 364.448 188.406 364.316 189.291L364.217 189.845C364.06 190.821 363.878 191.806 363.654 192.815L363.58 193.154C363.332 194.254 363.059 195.371 362.753 196.496L362.719 196.604C362.393 197.807 362.037 199.007 361.652 200.21C358.749 209.268 354.427 218.074 351.271 221.229L325.359 245.281L335.136 272.917C337.081 272.438 339.117 272.468 341.047 273.004C342.976 273.54 344.736 274.564 346.155 275.978C348.349 278.172 349.581 281.148 349.581 284.25C349.581 287.353 348.349 290.328 346.155 292.522L343.135 295.542L356.644 333.734C359.183 344.214 355.13 349.591 348.785 356.052C349.29 355.564 349.798 355.055 350.32 354.534L348.405 356.449ZM404.059 135.353C330.963 62.2569 212.449 62.2569 139.353 135.353C66.2569 208.449 66.2569 326.963 139.353 400.059C212.449 473.155 330.963 473.155 404.059 400.059C477.155 326.963 477.155 208.449 404.059 135.353Z" fill="url(#paint5_linear)"/>
<mask id="mask1" mask-type="alpha" maskUnits="userSpaceOnUse" x="7" y="3" width="530" height="530">
<path d="M7.24805 267.954L271.789 3.41357L536.247 267.871L271.706 532.412L7.24805 267.954Z" fill="white"/>
</mask>
<g mask="url(#mask1)">
</g>
<path d="M206.768 396C207.063 396.004 207.356 395.949 207.629 395.837C207.902 395.726 208.15 395.561 208.358 395.352C208.566 395.143 208.73 394.895 208.84 394.621C208.951 394.348 209.005 394.055 209 393.76C208.991 393.177 208.751 392.621 208.332 392.215C207.914 391.809 207.351 391.585 206.768 391.593C173.956 391.593 147.407 365.044 147.407 332.232C147.407 331.647 147.175 331.087 146.762 330.674C146.348 330.26 145.788 330.028 145.203 330.028C144.619 330.028 144.059 330.26 143.645 330.674C143.232 331.087 143 331.647 143 332.232C143 367.423 171.577 396 206.768 396ZM206.72 379.5C207.021 379.504 207.32 379.447 207.599 379.333C207.877 379.22 208.131 379.051 208.343 378.838C208.556 378.624 208.723 378.371 208.836 378.091C208.949 377.812 209.005 377.513 209 377.212C208.99 376.616 208.745 376.048 208.317 375.633C207.89 375.218 207.316 374.989 206.72 374.996C183.103 374.996 164.004 355.896 164.004 332.28C164.004 331.683 163.766 331.11 163.344 330.688C162.922 330.266 162.349 330.028 161.752 330.028C161.155 330.028 160.582 330.266 160.159 330.688C159.737 331.11 159.5 331.683 159.5 332.28C159.5 358.33 180.67 379.5 206.72 379.5ZM206.607 362.992C206.922 362.996 207.236 362.938 207.528 362.819C207.82 362.7 208.086 362.524 208.309 362.301C208.532 362.078 208.708 361.812 208.827 361.52C208.945 361.228 209.004 360.915 209 360.599C208.989 359.974 208.732 359.379 208.283 358.944C207.835 358.509 207.232 358.27 206.607 358.279C192.281 358.279 180.721 346.719 180.721 332.393C180.721 331.767 180.472 331.166 180.03 330.724C179.587 330.281 178.986 330.032 178.36 330.032C177.734 330.032 177.134 330.281 176.691 330.724C176.249 331.166 176 331.767 176 332.393C176 349.269 189.731 362.992 206.607 362.992ZM200.75 346.5C205.286 346.5 209 342.787 209 338.25C209 333.713 205.286 330 200.75 330C196.213 330 192.5 333.713 192.5 338.25C192.5 342.787 196.213 346.5 200.75 346.5ZM200.75 343.197C197.996 343.197 195.803 341.003 195.803 338.25C195.803 335.497 197.996 333.295 200.75 333.295C203.503 333.295 205.696 335.497 205.696 338.25C205.696 341.003 203.503 343.197 200.75 343.197Z" fill="url(#paint6_radial)"/>
<defs>
<filter id="filter0_d" x="0.248047" y="0.413574" width="542.999" height="542.999" filterUnits="userSpaceOnUse" color-interpolation-filters="sRGB">
<feFlood flood-opacity="0" result="BackgroundImageFix"/>
<feColorMatrix in="SourceAlpha" type="matrix" values="0 0 0 0 0 0 0 0 0 0 0 0 0 0 0 0 0 0 127 0"/>
<feOffset dy="4"/>
<feGaussianBlur stdDeviation="3.5"/>
<feColorMatrix type="matrix" values="0 0 0 0 0 0 0 0 0 0 0 0 0 0 0 0 0 0 0.25 0"/>
<feBlend mode="normal" in2="BackgroundImageFix" result="effect1_dropShadow"/>
<feBlend mode="normal" in="SourceGraphic" in2="effect1_dropShadow" result="shape"/>
</filter>
<linearGradient id="paint0_linear" x1="184.882" y1="189.097" x2="182.967" y2="191.012" gradientUnits="userSpaceOnUse">
<stop stop-color="#3C0000"/>
<stop offset="1" stop-color="white"/>
</linearGradient>
<linearGradient id="paint1_linear" x1="362.699" y1="176.713" x2="188.816" y2="350.596" gradientUnits="userSpaceOnUse">
<stop stop-color="#3C0000"/>
<stop offset="1" stop-color="white"/>
</linearGradient>
<linearGradient id="paint2_linear" x1="404.059" y1="135.353" x2="139.353" y2="400.059" gradientUnits="userSpaceOnUse">
<stop stop-color="#FFC8C8"/>
<stop offset="0.390625" stop-color="#FF0D0D"/>
<stop offset="1" stop-color="#170000"/>
</linearGradient>
<linearGradient id="paint3_linear" x1="348.756" y1="356.023" x2="346.117" y2="358.662" gradientUnits="userSpaceOnUse">
<stop stop-color="#FFC8C8"/>
<stop offset="0.390625" stop-color="#FF0D0D"/>
<stop offset="1" stop-color="#170000"/>
</linearGradient>
<linearGradient id="paint4_linear" x1="183.389" y1="190.656" x2="180.75" y2="193.295" gradientUnits="userSpaceOnUse">
<stop stop-color="#FFC8C8"/>
<stop offset="0.390625" stop-color="#FF0D0D"/>
<stop offset="1" stop-color="#170000"/>
</linearGradient>
<linearGradient id="paint5_linear" x1="404.059" y1="135.353" x2="139.353" y2="400.059" gradientUnits="userSpaceOnUse">
<stop stop-color="#FFC8C8"/>
<stop offset="0.390625" stop-color="#FF0D0D"/>
<stop offset="1" stop-color="#170000"/>
</linearGradient>
<radialGradient id="paint6_radial" cx="0" cy="0" r="1" gradientUnits="userSpaceOnUse" gradientTransform="translate(176 363) rotate(-90) scale(32.9999)">
<stop stop-color="white"/>
<stop offset="1" stop-color="white" stop-opacity="0"/>
</radialGradient>
</defs>
</svg>
