<svg width="576" height="198" viewBox="0 0 576 198" fill="none" xmlns="http://www.w3.org/2000/svg">
<g filter="url(#filter0_i)">
<path d="M72.304 134C63.28 134 58.768 129.776 58.768 121.328V56.528C58.768 48.08 63.28 43.856 72.304 43.856H88.288C97.216 43.856 101.68 48.08 101.68 56.528V121.328C101.68 127.856 98.992 131.888 93.616 133.424L103.84 147.104H90.016L80.512 134H72.304ZM71.872 58.544V119.312C71.872 121.04 72.112 122.192 72.592 122.768C73.168 123.248 74.32 123.488 76.048 123.488H84.4C86.128 123.488 87.28 123.248 87.856 122.768C88.432 122.192 88.72 121.04 88.72 119.312V58.544C88.72 56.816 88.432 55.712 87.856 55.232C87.28 54.656 86.128 54.368 84.4 54.368H76.048C74.32 54.368 73.168 54.656 72.592 55.232C72.112 55.712 71.872 56.816 71.872 58.544ZM141.795 63.728H154.755V134H141.795V128.384C140.547 132.128 137.571 134 132.867 134H127.683C119.043 134 114.723 129.776 114.723 121.328V63.728H127.683V119.312C127.683 121.04 127.971 122.192 128.547 122.768C129.123 123.248 130.275 123.488 132.003 123.488H137.043C138.771 123.488 139.971 123.104 140.643 122.336C141.411 121.568 141.795 120.272 141.795 118.448V63.728ZM179.989 63.728H195.397C204.325 63.728 208.789 68 208.789 76.544V121.328C208.789 129.776 204.325 134 195.397 134H179.989C171.157 134 166.741 129.776 166.741 121.328V76.544C166.741 68 171.157 63.728 179.989 63.728ZM195.973 119.456V78.272C195.973 76.544 195.685 75.392 195.109 74.816C194.533 74.24 193.381 73.952 191.653 73.952H183.733C182.005 73.952 180.853 74.24 180.277 74.816C179.797 75.392 179.557 76.544 179.557 78.272V119.456C179.557 121.184 179.797 122.336 180.277 122.912C180.853 123.488 182.005 123.776 183.733 123.776H191.653C193.381 123.776 194.533 123.488 195.109 122.912C195.685 122.336 195.973 121.184 195.973 119.456ZM244.518 74.24H234.87V118.736C234.87 120.464 235.11 121.616 235.59 122.192C236.166 122.672 237.318 122.912 239.046 122.912H244.518V134H235.302C226.278 134 221.766 129.776 221.766 121.328V74.24H215.142V63.728H221.766V51.776H234.87V63.728H244.518V74.24ZM264.786 63.728H280.194C289.122 63.728 293.586 68 293.586 76.544V121.328C293.586 129.776 289.122 134 280.194 134H264.786C255.954 134 251.538 129.776 251.538 121.328V76.544C251.538 68 255.954 63.728 264.786 63.728ZM280.77 119.456V78.272C280.77 76.544 280.482 75.392 279.906 74.816C279.33 74.24 278.178 73.952 276.45 73.952H268.53C266.802 73.952 265.65 74.24 265.074 74.816C264.594 75.392 264.354 76.544 264.354 78.272V119.456C264.354 121.184 264.594 122.336 265.074 122.912C265.65 123.488 266.802 123.776 268.53 123.776H276.45C278.178 123.776 279.33 123.488 279.906 122.912C280.482 122.336 280.77 121.184 280.77 119.456ZM301.235 104.336H314.339V119.312C314.339 121.04 314.627 122.192 315.203 122.768C315.779 123.248 316.931 123.488 318.659 123.488H322.835C324.563 123.488 325.715 123.248 326.291 122.768C326.867 122.192 327.155 121.04 327.155 119.312V43.856H340.259V121.328C340.259 129.776 335.795 134 326.867 134H314.627C305.699 134 301.235 129.776 301.235 121.328V104.336ZM366.753 63.728H380.865C389.889 63.728 394.401 68 394.401 76.544V102.896H366.033V119.6C366.033 121.232 366.321 122.336 366.897 122.912C367.473 123.488 368.625 123.776 370.353 123.776H376.977C378.705 123.776 379.857 123.488 380.433 122.912C381.009 122.336 381.297 121.184 381.297 119.456V113.696H393.969V121.328C393.969 129.776 389.505 134 380.577 134H366.753C357.825 134 353.361 129.776 353.361 121.328V76.544C353.361 68 357.825 63.728 366.753 63.728ZM366.033 93.392H381.585V78.128C381.585 76.496 381.297 75.392 380.721 74.816C380.241 74.24 379.137 73.952 377.409 73.952H370.353C368.625 73.952 367.473 74.24 366.897 74.816C366.321 75.392 366.033 76.496 366.033 78.128V93.392ZM429.299 74.24H419.651V118.736C419.651 120.464 419.891 121.616 420.371 122.192C420.947 122.672 422.099 122.912 423.827 122.912H429.299V134H420.083C411.059 134 406.547 129.776 406.547 121.328V74.24H399.923V63.728H406.547V51.776H419.651V63.728H429.299V74.24Z" fill="url(#paint0_linear)"/>
</g>
<path d="M93.616 133.424L93.4786 132.943L92.7814 133.142L93.2155 133.723L93.616 133.424ZM103.84 147.104V147.604H104.838L104.241 146.805L103.84 147.104ZM90.016 147.104L89.6112 147.398L89.761 147.604H90.016V147.104ZM80.512 134L80.9168 133.706L80.767 133.5H80.512V134ZM72.592 122.768L72.2079 123.088L72.237 123.123L72.2719 123.152L72.592 122.768ZM87.856 122.768L88.1761 123.152L88.1935 123.138L88.2096 123.122L87.856 122.768ZM87.856 55.232L87.5024 55.5855L87.5185 55.6016L87.5359 55.6161L87.856 55.232ZM72.592 55.232L72.2384 54.8784V54.8784L72.592 55.232ZM72.304 133.5C67.8612 133.5 64.6221 132.46 62.4937 130.467C60.3715 128.48 59.268 125.466 59.268 121.328H58.268C58.268 125.638 59.4205 128.96 61.8103 131.197C64.1939 133.428 67.7228 134.5 72.304 134.5V133.5ZM59.268 121.328V56.528H58.268V121.328H59.268ZM59.268 56.528C59.268 52.3898 60.3715 49.3757 62.4937 47.389C64.6221 45.3965 67.8612 44.356 72.304 44.356V43.356C67.7228 43.356 64.1939 44.4275 61.8103 46.659C59.4205 48.8962 58.268 52.2182 58.268 56.528H59.268ZM72.304 44.356H88.288V43.356H72.304V44.356ZM88.288 44.356C92.6816 44.356 95.8839 45.3958 97.9883 47.3872C100.088 49.3736 101.18 52.3883 101.18 56.528H102.18C102.18 52.2196 101.04 48.8984 98.6757 46.6608C96.3161 44.4281 92.8224 43.356 88.288 43.356V44.356ZM101.18 56.528V121.328H102.18V56.528H101.18ZM101.18 121.328C101.18 124.527 100.521 127.061 99.248 128.971C97.9798 130.873 96.0711 132.203 93.4786 132.943L93.7534 133.905C96.5369 133.109 98.6602 131.655 100.08 129.525C101.495 127.403 102.18 124.657 102.18 121.328H101.18ZM93.2155 133.723L103.439 147.403L104.241 146.805L94.0165 133.125L93.2155 133.723ZM103.84 146.604H90.016V147.604H103.84V146.604ZM90.4208 146.81L80.9168 133.706L80.1073 134.294L89.6112 147.398L90.4208 146.81ZM80.512 133.5H72.304V134.5H80.512V133.5ZM71.372 58.544V119.312H72.372V58.544H71.372ZM71.372 119.312C71.372 120.196 71.4331 120.953 71.5625 121.574C71.6906 122.189 71.8938 122.711 72.2079 123.088L72.9761 122.448C72.8102 122.249 72.6534 121.907 72.5415 121.37C72.4309 120.839 72.372 120.156 72.372 119.312H71.372ZM72.2719 123.152C72.6488 123.466 73.1711 123.669 73.786 123.797C74.4072 123.927 75.1641 123.988 76.048 123.988V122.988C75.2039 122.988 74.5208 122.929 73.99 122.819C73.4529 122.707 73.1112 122.55 72.9121 122.384L72.2719 123.152ZM76.048 123.988H84.4V122.988H76.048V123.988ZM84.4 123.988C85.2839 123.988 86.0408 123.927 86.662 123.797C87.2769 123.669 87.7992 123.466 88.1761 123.152L87.5359 122.384C87.3368 122.55 86.9951 122.707 86.458 122.819C85.9272 122.929 85.2441 122.988 84.4 122.988V123.988ZM88.2096 123.122C88.5845 122.747 88.8325 122.219 88.9891 121.593C89.1464 120.964 89.22 120.2 89.22 119.312H88.22C88.22 120.152 88.1496 120.828 88.0189 121.351C87.8875 121.877 87.7035 122.213 87.5024 122.414L88.2096 123.122ZM89.22 119.312V58.544H88.22V119.312H89.22ZM89.22 58.544C89.22 57.6568 89.1466 56.9023 88.9878 56.2938C88.8304 55.6903 88.5762 55.1813 88.1761 54.8479L87.5359 55.6161C87.7118 55.7627 87.8896 56.0456 88.0202 56.5462C88.1494 57.0417 88.22 57.7031 88.22 58.544H89.22ZM88.2096 54.8784C87.8346 54.5035 87.3074 54.2555 86.6813 54.0989C86.0521 53.9416 85.2881 53.868 84.4 53.868V54.868C85.2399 54.868 85.9159 54.9384 86.4387 55.0691C86.9646 55.2005 87.3014 55.3845 87.5024 55.5855L88.2096 54.8784ZM84.4 53.868H76.048V54.868H84.4V53.868ZM76.048 53.868C75.1599 53.868 74.3959 53.9416 73.7667 54.0989C73.1406 54.2555 72.6134 54.5035 72.2384 54.8784L72.9456 55.5855C73.1466 55.3845 73.4834 55.2005 74.0093 55.0691C74.5321 54.9384 75.2081 54.868 76.048 54.868V53.868ZM72.2384 54.8784C71.8992 55.2177 71.6917 55.7239 71.5634 56.3138C71.433 56.9139 71.372 57.6609 71.372 58.544H72.372C72.372 57.6991 72.431 57.0301 72.5406 56.5262C72.6523 56.0121 72.8048 55.7263 72.9456 55.5855L72.2384 54.8784ZM141.795 63.728V63.228H141.295V63.728H141.795ZM154.755 63.728H155.255V63.228H154.755V63.728ZM154.755 134V134.5H155.255V134H154.755ZM141.795 134H141.295V134.5H141.795V134ZM141.795 128.384H142.295L141.321 128.226L141.795 128.384ZM114.723 63.728V63.228H114.223V63.728H114.723ZM127.683 63.728H128.183V63.228H127.683V63.728ZM128.547 122.768L128.194 123.122L128.21 123.138L128.227 123.152L128.547 122.768ZM140.643 122.336L140.29 121.982L140.278 121.994L140.267 122.007L140.643 122.336ZM141.795 64.228H154.755V63.228H141.795V64.228ZM154.255 63.728V134H155.255V63.728H154.255ZM154.755 133.5H141.795V134.5H154.755V133.5ZM142.295 134V128.384H141.295V134H142.295ZM141.321 128.226C140.729 130.002 139.739 131.306 138.361 132.173C136.975 133.044 135.156 133.5 132.867 133.5V134.5C135.282 134.5 137.303 134.02 138.893 133.019C140.491 132.014 141.614 130.51 142.27 128.542L141.321 128.226ZM132.867 133.5H127.683V134.5H132.867V133.5ZM127.683 133.5C123.438 133.5 120.346 132.462 118.313 130.475C116.282 128.489 115.223 125.472 115.223 121.328H114.223C114.223 125.632 115.324 128.951 117.614 131.189C119.901 133.426 123.289 134.5 127.683 134.5V133.5ZM115.223 121.328V63.728H114.223V121.328H115.223ZM114.723 64.228H127.683V63.228H114.723V64.228ZM127.183 63.728V119.312H128.183V63.728H127.183ZM127.183 119.312C127.183 120.2 127.257 120.964 127.414 121.593C127.571 122.219 127.819 122.747 128.194 123.122L128.901 122.414C128.7 122.213 128.516 121.877 128.384 121.351C128.254 120.828 128.183 120.152 128.183 119.312H127.183ZM128.227 123.152C128.604 123.466 129.126 123.669 129.741 123.797C130.362 123.927 131.119 123.988 132.003 123.988V122.988C131.159 122.988 130.476 122.929 129.945 122.819C129.408 122.707 129.066 122.55 128.867 122.384L128.227 123.152ZM132.003 123.988H137.043V122.988H132.003V123.988ZM137.043 123.988C138.82 123.988 140.204 123.597 141.02 122.665L140.267 122.007C139.739 122.611 138.723 122.988 137.043 122.988V123.988ZM140.997 122.69C141.905 121.781 142.295 120.32 142.295 118.448H141.295C141.295 120.224 140.917 121.355 140.29 121.982L140.997 122.69ZM142.295 118.448V63.728H141.295V118.448H142.295ZM195.109 74.816L194.755 75.1695V75.1696L195.109 74.816ZM180.277 74.816L179.923 74.4624L179.907 74.4785L179.893 74.4959L180.277 74.816ZM180.277 122.912L179.893 123.232L179.907 123.25L179.923 123.266L180.277 122.912ZM195.109 122.912L195.463 123.266V123.266L195.109 122.912ZM179.989 64.228H195.397V63.228H179.989V64.228ZM195.397 64.228C199.789 64.228 202.991 65.2792 205.095 67.2932C207.196 69.3034 208.289 72.3548 208.289 76.544H209.289C209.289 72.1892 208.15 68.8326 205.787 66.5708C203.427 64.3128 199.933 63.228 195.397 63.228V64.228ZM208.289 76.544V121.328H209.289V76.544H208.289ZM208.289 121.328C208.289 125.468 207.197 128.482 205.097 130.469C202.993 132.46 199.791 133.5 195.397 133.5V134.5C199.931 134.5 203.425 133.428 205.785 131.195C208.149 128.958 209.289 125.636 209.289 121.328H208.289ZM195.397 133.5H179.989V134.5H195.397V133.5ZM179.989 133.5C175.645 133.5 172.479 132.461 170.399 130.471C168.322 128.485 167.241 125.469 167.241 121.328H166.241C166.241 125.635 167.368 128.955 169.707 131.193C172.043 133.427 175.501 134.5 179.989 134.5V133.5ZM167.241 121.328V76.544H166.241V121.328H167.241ZM167.241 76.544C167.241 72.3534 168.323 69.3012 170.401 67.2914C172.481 65.2785 175.646 64.228 179.989 64.228V63.228C175.5 63.228 172.041 64.3135 169.705 66.5726C167.367 68.8348 166.241 72.1906 166.241 76.544H167.241ZM196.473 119.456V78.272H195.473V119.456H196.473ZM196.473 78.272C196.473 77.3839 196.399 76.6199 196.242 75.9907C196.086 75.3646 195.837 74.8374 195.463 74.4624L194.755 75.1696C194.957 75.3706 195.14 75.7074 195.272 76.2333C195.403 76.7561 195.473 77.4321 195.473 78.272H196.473ZM195.463 74.4624C195.088 74.0875 194.56 73.8395 193.934 73.6829C193.305 73.5256 192.541 73.452 191.653 73.452V74.452C192.493 74.452 193.169 74.5224 193.692 74.6531C194.218 74.7845 194.554 74.9685 194.755 75.1695L195.463 74.4624ZM191.653 73.452H183.733V74.452H191.653V73.452ZM183.733 73.452C182.845 73.452 182.081 73.5256 181.452 73.6829C180.826 73.8395 180.298 74.0875 179.923 74.4624L180.631 75.1695C180.832 74.9685 181.168 74.7845 181.694 74.6531C182.217 74.5224 182.893 74.452 183.733 74.452V73.452ZM179.893 74.4959C179.579 74.8728 179.376 75.3951 179.248 76.01C179.118 76.6312 179.057 77.3881 179.057 78.272H180.057C180.057 77.4279 180.116 76.7448 180.226 76.214C180.338 75.6769 180.495 75.3352 180.661 75.1361L179.893 74.4959ZM179.057 78.272V119.456H180.057V78.272H179.057ZM179.057 119.456C179.057 120.34 179.118 121.097 179.248 121.718C179.376 122.333 179.579 122.855 179.893 123.232L180.661 122.592C180.495 122.393 180.338 122.051 180.226 121.514C180.116 120.983 180.057 120.3 180.057 119.456H179.057ZM179.923 123.266C180.298 123.64 180.826 123.889 181.452 124.045C182.081 124.202 182.845 124.276 183.733 124.276V123.276C182.893 123.276 182.217 123.206 181.694 123.075C181.168 122.943 180.832 122.76 180.631 122.558L179.923 123.266ZM183.733 124.276H191.653V123.276H183.733V124.276ZM191.653 124.276C192.541 124.276 193.305 124.202 193.934 124.045C194.56 123.889 195.088 123.64 195.463 123.266L194.755 122.558C194.554 122.76 194.218 122.943 193.692 123.075C193.169 123.206 192.493 123.276 191.653 123.276V124.276ZM195.463 123.266C195.837 122.891 196.086 122.363 196.242 121.737C196.399 121.108 196.473 120.344 196.473 119.456H195.473C195.473 120.296 195.403 120.972 195.272 121.495C195.14 122.021 194.957 122.357 194.755 122.558L195.463 123.266ZM244.518 74.24V74.74H245.018V74.24H244.518ZM234.87 74.24V73.74H234.37V74.24H234.87ZM235.59 122.192L235.206 122.512L235.235 122.547L235.27 122.576L235.59 122.192ZM244.518 122.912H245.018V122.412H244.518V122.912ZM244.518 134V134.5H245.018V134H244.518ZM221.766 74.24H222.266V73.74H221.766V74.24ZM215.142 74.24H214.642V74.74H215.142V74.24ZM215.142 63.728V63.228H214.642V63.728H215.142ZM221.766 63.728V64.228H222.266V63.728H221.766ZM221.766 51.776V51.276H221.266V51.776H221.766ZM234.87 51.776H235.37V51.276H234.87V51.776ZM234.87 63.728H234.37V64.228H234.87V63.728ZM244.518 63.728H245.018V63.228H244.518V63.728ZM244.518 73.74H234.87V74.74H244.518V73.74ZM234.37 74.24V118.736H235.37V74.24H234.37ZM234.37 118.736C234.37 119.62 234.431 120.377 234.56 120.998C234.689 121.613 234.892 122.135 235.206 122.512L235.974 121.872C235.808 121.673 235.651 121.331 235.539 120.794C235.429 120.263 235.37 119.58 235.37 118.736H234.37ZM235.27 122.576C235.647 122.89 236.169 123.093 236.784 123.221C237.405 123.351 238.162 123.412 239.046 123.412V122.412C238.202 122.412 237.519 122.353 236.988 122.243C236.451 122.131 236.109 121.974 235.91 121.808L235.27 122.576ZM239.046 123.412H244.518V122.412H239.046V123.412ZM244.018 122.912V134H245.018V122.912H244.018ZM244.518 133.5H235.302V134.5H244.518V133.5ZM235.302 133.5C230.859 133.5 227.62 132.46 225.492 130.467C223.369 128.48 222.266 125.466 222.266 121.328H221.266C221.266 125.638 222.418 128.96 224.808 131.197C227.192 133.428 230.721 134.5 235.302 134.5V133.5ZM222.266 121.328V74.24H221.266V121.328H222.266ZM221.766 73.74H215.142V74.74H221.766V73.74ZM215.642 74.24V63.728H214.642V74.24H215.642ZM215.142 64.228H221.766V63.228H215.142V64.228ZM222.266 63.728V51.776H221.266V63.728H222.266ZM221.766 52.276H234.87V51.276H221.766V52.276ZM234.37 51.776V63.728H235.37V51.776H234.37ZM234.87 64.228H244.518V63.228H234.87V64.228ZM244.018 63.728V74.24H245.018V63.728H244.018ZM279.906 74.816L279.552 75.1695V75.1696L279.906 74.816ZM265.074 74.816L264.72 74.4624L264.704 74.4785L264.69 74.4959L265.074 74.816ZM265.074 122.912L264.69 123.232L264.704 123.25L264.72 123.266L265.074 122.912ZM279.906 122.912L280.259 123.266V123.266L279.906 122.912ZM264.786 64.228H280.194V63.228H264.786V64.228ZM280.194 64.228C284.586 64.228 287.788 65.2792 289.892 67.2932C291.993 69.3034 293.086 72.3548 293.086 76.544H294.086C294.086 72.1892 292.947 68.8326 290.584 66.5708C288.224 64.3128 284.73 63.228 280.194 63.228V64.228ZM293.086 76.544V121.328H294.086V76.544H293.086ZM293.086 121.328C293.086 125.468 291.994 128.482 289.894 130.469C287.79 132.46 284.587 133.5 280.194 133.5V134.5C284.728 134.5 288.222 133.428 290.582 131.195C292.946 128.958 294.086 125.636 294.086 121.328H293.086ZM280.194 133.5H264.786V134.5H280.194V133.5ZM264.786 133.5C260.442 133.5 257.276 132.461 255.195 130.471C253.119 128.485 252.038 125.469 252.038 121.328H251.038C251.038 125.635 252.165 128.955 254.504 131.193C256.84 133.427 260.298 134.5 264.786 134.5V133.5ZM252.038 121.328V76.544H251.038V121.328H252.038ZM252.038 76.544C252.038 72.3534 253.12 69.3012 255.198 67.2914C257.278 65.2785 260.443 64.228 264.786 64.228V63.228C260.297 63.228 256.838 64.3135 254.502 66.5726C252.164 68.8348 251.038 72.1906 251.038 76.544H252.038ZM281.27 119.456V78.272H280.27V119.456H281.27ZM281.27 78.272C281.27 77.3839 281.196 76.6199 281.039 75.9907C280.882 75.3646 280.634 74.8374 280.259 74.4624L279.552 75.1696C279.753 75.3706 279.937 75.7074 280.069 76.2333C280.2 76.7561 280.27 77.4321 280.27 78.272H281.27ZM280.259 74.4624C279.884 74.0875 279.357 73.8395 278.731 73.6829C278.102 73.5256 277.338 73.452 276.45 73.452V74.452C277.29 74.452 277.966 74.5224 278.489 74.6531C279.014 74.7845 279.351 74.9685 279.552 75.1695L280.259 74.4624ZM276.45 73.452H268.53V74.452H276.45V73.452ZM268.53 73.452C267.642 73.452 266.878 73.5256 266.249 73.6829C265.622 73.8395 265.095 74.0875 264.72 74.4624L265.427 75.1695C265.628 74.9685 265.965 74.7845 266.491 74.6531C267.014 74.5224 267.69 74.452 268.53 74.452V73.452ZM264.69 74.4959C264.376 74.8728 264.173 75.3951 264.044 76.01C263.915 76.6312 263.854 77.3881 263.854 78.272H264.854C264.854 77.4279 264.913 76.7448 265.023 76.214C265.135 75.6769 265.292 75.3352 265.458 75.1361L264.69 74.4959ZM263.854 78.272V119.456H264.854V78.272H263.854ZM263.854 119.456C263.854 120.34 263.915 121.097 264.044 121.718C264.173 122.333 264.376 122.855 264.69 123.232L265.458 122.592C265.292 122.393 265.135 122.051 265.023 121.514C264.913 120.983 264.854 120.3 264.854 119.456H263.854ZM264.72 123.266C265.095 123.64 265.622 123.889 266.249 124.045C266.878 124.202 267.642 124.276 268.53 124.276V123.276C267.69 123.276 267.014 123.206 266.491 123.075C265.965 122.943 265.628 122.76 265.427 122.558L264.72 123.266ZM268.53 124.276H276.45V123.276H268.53V124.276ZM276.45 124.276C277.338 124.276 278.102 124.202 278.731 124.045C279.357 123.889 279.884 123.64 280.259 123.266L279.552 122.558C279.351 122.76 279.014 122.943 278.489 123.075C277.966 123.206 277.29 123.276 276.45 123.276V124.276ZM280.259 123.266C280.634 122.891 280.882 122.363 281.039 121.737C281.196 121.108 281.27 120.344 281.27 119.456H280.27C280.27 120.296 280.2 120.972 280.069 121.495C279.937 122.021 279.753 122.357 279.552 122.558L280.259 123.266ZM301.235 104.336V103.836H300.735V104.336H301.235ZM314.339 104.336H314.839V103.836H314.339V104.336ZM315.203 122.768L314.849 123.122L314.865 123.138L314.883 123.152L315.203 122.768ZM326.291 122.768L326.611 123.152L326.628 123.138L326.644 123.122L326.291 122.768ZM327.155 43.856V43.356H326.655V43.856H327.155ZM340.259 43.856H340.759V43.356H340.259V43.856ZM301.235 104.836H314.339V103.836H301.235V104.836ZM313.839 104.336V119.312H314.839V104.336H313.839ZM313.839 119.312C313.839 120.2 313.912 120.964 314.07 121.593C314.226 122.219 314.474 122.747 314.849 123.122L315.556 122.414C315.355 122.213 315.171 121.877 315.04 121.351C314.909 120.828 314.839 120.152 314.839 119.312H313.839ZM314.883 123.152C315.26 123.466 315.782 123.669 316.397 123.797C317.018 123.927 317.775 123.988 318.659 123.988V122.988C317.815 122.988 317.132 122.929 316.601 122.819C316.064 122.707 315.722 122.55 315.523 122.384L314.883 123.152ZM318.659 123.988H322.835V122.988H318.659V123.988ZM322.835 123.988C323.719 123.988 324.476 123.927 325.097 123.797C325.712 123.669 326.234 123.466 326.611 123.152L325.971 122.384C325.772 122.55 325.43 122.707 324.893 122.819C324.362 122.929 323.679 122.988 322.835 122.988V123.988ZM326.644 123.122C327.019 122.747 327.267 122.219 327.424 121.593C327.581 120.964 327.655 120.2 327.655 119.312H326.655C326.655 120.152 326.584 120.828 326.454 121.351C326.322 121.877 326.138 122.213 325.937 122.414L326.644 123.122ZM327.655 119.312V43.856H326.655V119.312H327.655ZM327.155 44.356H340.259V43.356H327.155V44.356ZM339.759 43.856V121.328H340.759V43.856H339.759ZM339.759 121.328C339.759 125.468 338.666 128.482 336.567 130.469C334.463 132.46 331.26 133.5 326.867 133.5V134.5C331.401 134.5 334.895 133.428 337.254 131.195C339.619 128.958 340.759 125.636 340.759 121.328H339.759ZM326.867 133.5H314.627V134.5H326.867V133.5ZM314.627 133.5C310.233 133.5 307.031 132.46 304.926 130.469C302.827 128.482 301.735 125.468 301.735 121.328H300.735C300.735 125.636 301.874 128.958 304.239 131.195C306.599 133.428 310.092 134.5 314.627 134.5V133.5ZM301.735 121.328V104.336H300.735V121.328H301.735ZM394.401 102.896V103.396H394.901V102.896H394.401ZM366.033 102.896V102.396H365.533V102.896H366.033ZM366.897 122.912L367.25 122.558L366.897 122.912ZM380.432 122.912L380.079 122.558L380.432 122.912ZM381.297 113.696V113.196H380.797V113.696H381.297ZM393.969 113.696H394.469V113.196H393.969V113.696ZM366.033 93.392H365.533V93.892H366.033V93.392ZM381.585 93.392V93.892H382.085V93.392H381.585ZM380.72 74.816L380.336 75.1361L380.351 75.1535L380.367 75.1696L380.72 74.816ZM366.897 74.816L367.25 75.1696V75.1695L366.897 74.816ZM366.753 64.228H380.865V63.228H366.753V64.228ZM380.865 64.228C385.306 64.228 388.544 65.2798 390.673 67.2951C392.796 69.3055 393.901 72.3563 393.901 76.544H394.901C394.901 72.1877 393.749 68.8305 391.36 66.5689C388.977 64.3122 385.447 63.228 380.865 63.228V64.228ZM393.901 76.544V102.896H394.901V76.544H393.901ZM394.401 102.396H366.033V103.396H394.401V102.396ZM365.533 102.896V119.6H366.533V102.896H365.533ZM365.533 119.6C365.533 121.249 365.815 122.537 366.543 123.266L367.25 122.558C366.826 122.135 366.533 121.215 366.533 119.6H365.533ZM366.543 123.266C366.918 123.64 367.445 123.889 368.071 124.045C368.7 124.202 369.464 124.276 370.353 124.276V123.276C369.513 123.276 368.837 123.206 368.314 123.075C367.788 122.943 367.451 122.76 367.25 122.558L366.543 123.266ZM370.353 124.276H376.977V123.276H370.353V124.276ZM376.977 124.276C377.865 124.276 378.629 124.202 379.258 124.045C379.884 123.889 380.411 123.64 380.786 123.266L380.079 122.558C379.878 122.76 379.541 122.943 379.015 123.075C378.492 123.206 377.816 123.276 376.977 123.276V124.276ZM380.786 123.266C381.161 122.891 381.409 122.363 381.566 121.737C381.723 121.108 381.797 120.344 381.797 119.456H380.797C380.797 120.296 380.726 120.972 380.595 121.495C380.464 122.021 380.28 122.357 380.079 122.558L380.786 123.266ZM381.797 119.456V113.696H380.797V119.456H381.797ZM381.297 114.196H393.969V113.196H381.297V114.196ZM393.469 113.696V121.328H394.469V113.696H393.469ZM393.469 121.328C393.469 125.468 392.376 128.482 390.277 130.469C388.172 132.46 384.97 133.5 380.577 133.5V134.5C385.111 134.5 388.605 133.428 390.964 131.195C393.329 128.958 394.469 125.636 394.469 121.328H393.469ZM380.577 133.5H366.753V134.5H380.577V133.5ZM366.753 133.5C362.359 133.5 359.157 132.46 357.052 130.469C354.953 128.482 353.861 125.468 353.861 121.328H352.861C352.861 125.636 354 128.958 356.365 131.195C358.724 133.428 362.218 134.5 366.753 134.5V133.5ZM353.861 121.328V76.544H352.861V121.328H353.861ZM353.861 76.544C353.861 72.3548 354.954 69.3034 357.054 67.2932C359.159 65.2792 362.36 64.228 366.753 64.228V63.228C362.217 63.228 358.722 64.3128 356.363 66.5708C353.999 68.8326 352.861 72.1892 352.861 76.544H353.861ZM366.033 93.892H381.585V92.892H366.033V93.892ZM382.085 93.392V78.128H381.085V93.392H382.085ZM382.085 78.128C382.085 76.4788 381.802 75.1905 381.074 74.4624L380.367 75.1696C380.791 75.5935 381.085 76.5132 381.085 78.128H382.085ZM381.105 74.4959C380.771 74.0958 380.262 73.8416 379.659 73.6842C379.05 73.5254 378.296 73.452 377.409 73.452V74.452C378.249 74.452 378.911 74.5226 379.406 74.6518C379.907 74.7824 380.19 74.9602 380.336 75.1361L381.105 74.4959ZM377.409 73.452H370.353V74.452H377.409V73.452ZM370.353 73.452C369.464 73.452 368.7 73.5256 368.071 73.6829C367.445 73.8395 366.918 74.0875 366.543 74.4624L367.25 75.1695C367.451 74.9685 367.788 74.7845 368.314 74.6531C368.837 74.5224 369.513 74.452 370.353 74.452V73.452ZM366.543 74.4624C365.815 75.1905 365.533 76.4788 365.533 78.128H366.533C366.533 76.5132 366.826 75.5935 367.25 75.1696L366.543 74.4624ZM365.533 78.128V93.392H366.533V78.128H365.533ZM429.299 74.24V74.74H429.799V74.24H429.299ZM419.651 74.24V73.74H419.151V74.24H419.651ZM420.371 122.192L419.987 122.512L420.016 122.547L420.051 122.576L420.371 122.192ZM429.299 122.912H429.799V122.412H429.299V122.912ZM429.299 134V134.5H429.799V134H429.299ZM406.547 74.24H407.047V73.74H406.547V74.24ZM399.923 74.24H399.423V74.74H399.923V74.24ZM399.923 63.728V63.228H399.423V63.728H399.923ZM406.547 63.728V64.228H407.047V63.728H406.547ZM406.547 51.776V51.276H406.047V51.776H406.547ZM419.651 51.776H420.151V51.276H419.651V51.776ZM419.651 63.728H419.151V64.228H419.651V63.728ZM429.299 63.728H429.799V63.228H429.299V63.728ZM429.299 73.74H419.651V74.74H429.299V73.74ZM419.151 74.24V118.736H420.151V74.24H419.151ZM419.151 118.736C419.151 119.62 419.212 120.377 419.342 120.998C419.47 121.613 419.673 122.135 419.987 122.512L420.755 121.872C420.589 121.673 420.432 121.331 420.321 120.794C420.21 120.263 420.151 119.58 420.151 118.736H419.151ZM420.051 122.576C420.428 122.89 420.95 123.093 421.565 123.221C422.186 123.351 422.943 123.412 423.827 123.412V122.412C422.983 122.412 422.3 122.353 421.769 122.243C421.232 122.131 420.89 121.974 420.691 121.808L420.051 122.576ZM423.827 123.412H429.299V122.412H423.827V123.412ZM428.799 122.912V134H429.799V122.912H428.799ZM429.299 133.5H420.083V134.5H429.299V133.5ZM420.083 133.5C415.64 133.5 412.401 132.46 410.273 130.467C408.151 128.48 407.047 125.466 407.047 121.328H406.047C406.047 125.638 407.2 128.96 409.589 131.197C411.973 133.428 415.502 134.5 420.083 134.5V133.5ZM407.047 121.328V74.24H406.047V121.328H407.047ZM406.547 73.74H399.923V74.74H406.547V73.74ZM400.423 74.24V63.728H399.423V74.24H400.423ZM399.923 64.228H406.547V63.228H399.923V64.228ZM407.047 63.728V51.776H406.047V63.728H407.047ZM406.547 52.276H419.651V51.276H406.547V52.276ZM419.151 51.776V63.728H420.151V51.776H419.151ZM419.651 64.228H429.299V63.228H419.651V64.228ZM428.799 63.728V74.24H429.799V63.728H428.799Z" fill="url(#paint1_linear)"/>
<g filter="url(#filter1_i)">
<path d="M362 59L340.25 67.6603L340.25 50.3397L362 59Z" fill="#382B2B"/>
</g>
<g filter="url(#filter2_i)">
<path d="M333.5 19L348.655 45.25H318.345L333.5 19Z" fill="#382B2B"/>
</g>
<g filter="url(#filter3_i)">
<path d="M306 59L327.75 50.3397L327.75 67.6603L306 59Z" fill="#382B2B"/>
</g>
<defs>
<filter id="filter0_i" x="58.268" y="43.356" width="371.531" height="108.248" filterUnits="userSpaceOnUse" color-interpolation-filters="sRGB">
<feFlood flood-opacity="0" result="BackgroundImageFix"/>
<feBlend mode="normal" in="SourceGraphic" in2="BackgroundImageFix" result="shape"/>
<feColorMatrix in="SourceAlpha" type="matrix" values="0 0 0 0 0 0 0 0 0 0 0 0 0 0 0 0 0 0 127 0" result="hardAlpha"/>
<feOffset dy="4"/>
<feGaussianBlur stdDeviation="7.5"/>
<feComposite in2="hardAlpha" operator="arithmetic" k2="-1" k3="1"/>
<feColorMatrix type="matrix" values="0 0 0 0 0.620833 0 0 0 0 0.620833 0 0 0 0 0.620833 0 0 0 0.25 0"/>
<feBlend mode="normal" in2="shape" result="effect1_innerShadow"/>
</filter>
<filter id="filter1_i" x="340.25" y="50.3398" width="21.75" height="21.3205" filterUnits="userSpaceOnUse" color-interpolation-filters="sRGB">
<feFlood flood-opacity="0" result="BackgroundImageFix"/>
<feBlend mode="normal" in="SourceGraphic" in2="BackgroundImageFix" result="shape"/>
<feColorMatrix in="SourceAlpha" type="matrix" values="0 0 0 0 0 0 0 0 0 0 0 0 0 0 0 0 0 0 127 0" result="hardAlpha"/>
<feOffset dy="4"/>
<feGaussianBlur stdDeviation="2"/>
<feComposite in2="hardAlpha" operator="arithmetic" k2="-1" k3="1"/>
<feColorMatrix type="matrix" values="0 0 0 0 0.608333 0 0 0 0 0.608333 0 0 0 0 0.608333 0 0 0 0.25 0"/>
<feBlend mode="normal" in2="shape" result="effect1_innerShadow"/>
</filter>
<filter id="filter2_i" x="318.345" y="19" width="30.3109" height="30.25" filterUnits="userSpaceOnUse" color-interpolation-filters="sRGB">
<feFlood flood-opacity="0" result="BackgroundImageFix"/>
<feBlend mode="normal" in="SourceGraphic" in2="BackgroundImageFix" result="shape"/>
<feColorMatrix in="SourceAlpha" type="matrix" values="0 0 0 0 0 0 0 0 0 0 0 0 0 0 0 0 0 0 127 0" result="hardAlpha"/>
<feOffset dy="4"/>
<feGaussianBlur stdDeviation="7.5"/>
<feComposite in2="hardAlpha" operator="arithmetic" k2="-1" k3="1"/>
<feColorMatrix type="matrix" values="0 0 0 0 0.608333 0 0 0 0 0.608333 0 0 0 0 0.608333 0 0 0 0.25 0"/>
<feBlend mode="normal" in2="shape" result="effect1_innerShadow"/>
</filter>
<filter id="filter3_i" x="306" y="50.3398" width="21.75" height="21.3205" filterUnits="userSpaceOnUse" color-interpolation-filters="sRGB">
<feFlood flood-opacity="0" result="BackgroundImageFix"/>
<feBlend mode="normal" in="SourceGraphic" in2="BackgroundImageFix" result="shape"/>
<feColorMatrix in="SourceAlpha" type="matrix" values="0 0 0 0 0 0 0 0 0 0 0 0 0 0 0 0 0 0 127 0" result="hardAlpha"/>
<feOffset dy="4"/>
<feGaussianBlur stdDeviation="2"/>
<feComposite in2="hardAlpha" operator="arithmetic" k2="-1" k3="1"/>
<feColorMatrix type="matrix" values="0 0 0 0 0.608333 0 0 0 0 0.608333 0 0 0 0 0.608333 0 0 0 0.25 0"/>
<feBlend mode="normal" in2="shape" result="effect1_innerShadow"/>
</filter>
<linearGradient id="paint0_linear" x1="241.5" y1="-4" x2="241.5" y2="202" gradientUnits="userSpaceOnUse">
<stop offset="0.354167" stop-color="#382B2B"/>
<stop offset="0.552083" stop-color="#B10000" stop-opacity="0.557292"/>
<stop offset="0.671875" stop-color="white"/>
<stop offset="1" stop-color="#CBCBCB" stop-opacity="0"/>
</linearGradient>
<linearGradient id="paint1_linear" x1="39.5" y1="99" x2="428" y2="97" gradientUnits="userSpaceOnUse">
<stop stop-color="#AEAEAE"/>
<stop offset="0.76492" stop-color="#D2D2D2" stop-opacity="0"/>
</linearGradient>
</defs>
</svg>
