<svg width="576" height="198" viewBox="0 0 576 198" fill="none" xmlns="http://www.w3.org/2000/svg">
<path d="M306 62L327.75 53.3397L327.75 70.6603L306 62Z" fill="url(#paint0_linear)"/>
<path d="M362 62L340.25 70.6603L340.25 53.3397L362 62Z" fill="url(#paint1_linear)"/>
<path d="M72.304 134C63.28 134 58.768 129.776 58.768 121.328V56.528C58.768 48.08 63.28 43.856 72.304 43.856H88.288C97.216 43.856 101.68 48.08 101.68 56.528V121.328C101.68 127.856 98.992 131.888 93.616 133.424L103.84 147.104H90.016L80.512 134H72.304ZM71.872 58.544V119.312C71.872 121.04 72.112 122.192 72.592 122.768C73.168 123.248 74.32 123.488 76.048 123.488H84.4C86.128 123.488 87.28 123.248 87.856 122.768C88.432 122.192 88.72 121.04 88.72 119.312V58.544C88.72 56.816 88.432 55.712 87.856 55.232C87.28 54.656 86.128 54.368 84.4 54.368H76.048C74.32 54.368 73.168 54.656 72.592 55.232C72.112 55.712 71.872 56.816 71.872 58.544ZM141.795 63.728H154.755V134H141.795V128.384C140.547 132.128 137.571 134 132.867 134H127.683C119.043 134 114.723 129.776 114.723 121.328V63.728H127.683V119.312C127.683 121.04 127.971 122.192 128.547 122.768C129.123 123.248 130.275 123.488 132.003 123.488H137.043C138.771 123.488 139.971 123.104 140.643 122.336C141.411 121.568 141.795 120.272 141.795 118.448V63.728ZM179.989 63.728H195.397C204.325 63.728 208.789 68 208.789 76.544V121.328C208.789 129.776 204.325 134 195.397 134H179.989C171.157 134 166.741 129.776 166.741 121.328V76.544C166.741 68 171.157 63.728 179.989 63.728ZM195.973 119.456V78.272C195.973 76.544 195.685 75.392 195.109 74.816C194.533 74.24 193.381 73.952 191.653 73.952H183.733C182.005 73.952 180.853 74.24 180.277 74.816C179.797 75.392 179.557 76.544 179.557 78.272V119.456C179.557 121.184 179.797 122.336 180.277 122.912C180.853 123.488 182.005 123.776 183.733 123.776H191.653C193.381 123.776 194.533 123.488 195.109 122.912C195.685 122.336 195.973 121.184 195.973 119.456ZM244.518 74.24H234.87V118.736C234.87 120.464 235.11 121.616 235.59 122.192C236.166 122.672 237.318 122.912 239.046 122.912H244.518V134H235.302C226.278 134 221.766 129.776 221.766 121.328V74.24H215.142V63.728H221.766V51.776H234.87V63.728H244.518V74.24ZM264.786 63.728H280.194C289.122 63.728 293.586 68 293.586 76.544V121.328C293.586 129.776 289.122 134 280.194 134H264.786C255.954 134 251.538 129.776 251.538 121.328V76.544C251.538 68 255.954 63.728 264.786 63.728ZM280.77 119.456V78.272C280.77 76.544 280.482 75.392 279.906 74.816C279.33 74.24 278.178 73.952 276.45 73.952H268.53C266.802 73.952 265.65 74.24 265.074 74.816C264.594 75.392 264.354 76.544 264.354 78.272V119.456C264.354 121.184 264.594 122.336 265.074 122.912C265.65 123.488 266.802 123.776 268.53 123.776H276.45C278.178 123.776 279.33 123.488 279.906 122.912C280.482 122.336 280.77 121.184 280.77 119.456Z" fill="url(#paint2_linear)"/>
<path d="M301.235 104.336H314.339V119.312C314.339 121.04 314.627 122.192 315.203 122.768C315.779 123.248 316.931 123.488 318.659 123.488H322.835C324.563 123.488 325.715 123.248 326.291 122.768C326.867 122.192 327.155 121.04 327.155 119.312V43.856H340.259V121.328C340.259 129.776 335.795 134 326.867 134H314.627C305.699 134 301.235 129.776 301.235 121.328V104.336ZM366.753 63.728H380.865C389.889 63.728 394.401 68 394.401 76.544V102.896H366.033V119.6C366.033 121.232 366.321 122.336 366.897 122.912C367.473 123.488 368.625 123.776 370.353 123.776H376.977C378.705 123.776 379.857 123.488 380.433 122.912C381.009 122.336 381.297 121.184 381.297 119.456V113.696H393.969V121.328C393.969 129.776 389.505 134 380.577 134H366.753C357.825 134 353.361 129.776 353.361 121.328V76.544C353.361 68 357.825 63.728 366.753 63.728ZM366.033 93.392H381.585V78.128C381.585 76.496 381.297 75.392 380.721 74.816C380.241 74.24 379.137 73.952 377.409 73.952H370.353C368.625 73.952 367.473 74.24 366.897 74.816C366.321 75.392 366.033 76.496 366.033 78.128V93.392ZM429.299 74.24H419.651V118.736C419.651 120.464 419.891 121.616 420.371 122.192C420.947 122.672 422.099 122.912 423.827 122.912H429.299V134H420.083C411.059 134 406.547 129.776 406.547 121.328V74.24H399.923V63.728H406.547V51.776H419.651V63.728H429.299V74.24Z" fill="url(#paint3_linear)"/>
<path d="M301.235 104.336H314.339V119.312C314.339 121.04 314.627 122.192 315.203 122.768C315.779 123.248 316.931 123.488 318.659 123.488H322.835C324.563 123.488 325.715 123.248 326.291 122.768C326.867 122.192 327.155 121.04 327.155 119.312V43.856H340.259V121.328C340.259 129.776 335.795 134 326.867 134H314.627C305.699 134 301.235 129.776 301.235 121.328V104.336ZM366.753 63.728H380.865C389.889 63.728 394.401 68 394.401 76.544V102.896H366.033V119.6C366.033 121.232 366.321 122.336 366.897 122.912C367.473 123.488 368.625 123.776 370.353 123.776H376.977C378.705 123.776 379.857 123.488 380.433 122.912C381.009 122.336 381.297 121.184 381.297 119.456V113.696H393.969V121.328C393.969 129.776 389.505 134 380.577 134H366.753C357.825 134 353.361 129.776 353.361 121.328V76.544C353.361 68 357.825 63.728 366.753 63.728ZM366.033 93.392H381.585V78.128C381.585 76.496 381.297 75.392 380.721 74.816C380.241 74.24 379.137 73.952 377.409 73.952H370.353C368.625 73.952 367.473 74.24 366.897 74.816C366.321 75.392 366.033 76.496 366.033 78.128V93.392ZM429.299 74.24H419.651V118.736C419.651 120.464 419.891 121.616 420.371 122.192C420.947 122.672 422.099 122.912 423.827 122.912H429.299V134H420.083C411.059 134 406.547 129.776 406.547 121.328V74.24H399.923V63.728H406.547V51.776H419.651V63.728H429.299V74.24Z" fill="url(#paint4_linear)"/>
<path d="M333.5 17L348.655 43.25H318.345L333.5 17Z" fill="url(#paint5_linear)"/>
<defs>
<linearGradient id="paint0_linear" x1="313" y1="28" x2="344" y2="77.5" gradientUnits="userSpaceOnUse">
<stop offset="0.395833" stop-color="#CFCFCF"/>
<stop offset="1" stop-color="#C04343" stop-opacity="0.37"/>
</linearGradient>
<linearGradient id="paint1_linear" x1="339" y1="54" x2="348.5" y2="74" gradientUnits="userSpaceOnUse">
<stop stop-color="#CFCFCF"/>
<stop offset="1" stop-color="#7A0E0E" stop-opacity="0.23"/>
</linearGradient>
<linearGradient id="paint2_linear" x1="241.5" y1="-4" x2="241.5" y2="202" gradientUnits="userSpaceOnUse">
<stop offset="0.421875" stop-color="#CC0000"/>
<stop offset="0.635417" stop-color="#B5B5B5" stop-opacity="0.557292"/>
<stop offset="0.802083" stop-color="#DBD7D7" stop-opacity="0.46"/>
<stop offset="1" stop-color="#E2DDDD" stop-opacity="0.557292"/>
</linearGradient>
<linearGradient id="paint3_linear" x1="241.5" y1="-4" x2="241.5" y2="202" gradientUnits="userSpaceOnUse">
<stop offset="0.421875" stop-color="#CC0000"/>
<stop offset="0.635417" stop-color="#B5B5B5" stop-opacity="0.557292"/>
<stop offset="0.802083" stop-color="#DBD7D7" stop-opacity="0.46"/>
<stop offset="1" stop-color="#E2DDDD" stop-opacity="0.557292"/>
</linearGradient>
<linearGradient id="paint4_linear" x1="241.5" y1="-4" x2="241.5" y2="202" gradientUnits="userSpaceOnUse">
<stop offset="0.286458" stop-color="#EEEEEE"/>
<stop offset="0.640625" stop-color="#0A0303" stop-opacity="0"/>
</linearGradient>
<linearGradient id="paint5_linear" x1="333.5" y1="17" x2="333" y2="52" gradientUnits="userSpaceOnUse">
<stop stop-color="white"/>
<stop offset="1" stop-color="#D2D2D2" stop-opacity="0"/>
</linearGradient>
</defs>
</svg>
